<svg width="64" height="64" viewBox="0 0 56 56" fill="none" xmlns="http://www.w3.org/2000/svg">
<g clip-path="url(#clip0_52_519)">
<g clip-path="url(#clip1_52_519)">
<path d="M30 36.725V34.675C31.5 34.2417 32.7083 33.4083 33.625 32.175C34.5417 30.9417 35 29.5417 35 27.975C35 26.4083 34.5417 25.0083 33.625 23.775C32.7083 22.5417 31.5 21.7083 30 21.275V19.225C32.0667 19.6917 33.75 20.7417 35.05 22.375C36.35 23.9917 37 25.8583 37 27.975C37 30.0917 36.35 31.9667 35.05 33.6C33.75 35.2167 32.0667 36.2583 30 36.725ZM19 31V25H23L28 20V36L23 31H19ZM30 32V23.95C30.7833 24.3167 31.3917 24.8667 31.825 25.6C32.275 26.3333 32.5 27.1333 32.5 28C32.5 28.85 32.275 29.6417 31.825 30.375C31.3917 31.0917 30.7833 31.6333 30 32Z" fill="#452B00"/>
</g>
</g>
<defs>
<clipPath id="clip0_52_519">
<rect width="64" height="64" rx="28" fill="white"/>
</clipPath>
<clipPath id="clip1_52_519">
<rect width="32" height="32" fill="white" transform="translate(16 16)"/>
</clipPath>
</defs>
</svg>
