<svg width="28" height="24" viewBox="0 0 28 24" fill="none" xmlns="http://www.w3.org/2000/svg">
<path d="M6 24C4.53333 24 3.27778 23.4778 2.23333 22.4333C1.18889 21.3889 0.666667 20.1333 0.666667 18.6667V8.06667C0.666667 6.6 1.18889 5.34444 2.23333 4.3C3.27778 3.25555 4.53333 2.73333 6 2.73333H7.93333L10.6667 -1.90735e-06H17.3333L20.0667 2.73333H22C23.4667 2.73333 24.7222 3.25555 25.7667 4.3C26.8111 5.34444 27.3333 6.6 27.3333 8.06667V18.6667C27.3333 20.1333 26.8111 21.3889 25.7667 22.4333C24.7222 23.4778 23.4667 24 22 24H6ZM6 21.5667H22C22.8 21.5667 23.4778 21.2889 24.0333 20.7333C24.6111 20.1556 24.9 19.4667 24.9 18.6667V8.06667C24.9 7.26667 24.6111 6.58889 24.0333 6.03333C23.4778 5.47778 22.8 5.2 22 5.2H6C5.2 5.2 4.51111 5.47778 3.93333 6.03333C3.37778 6.58889 3.1 7.26667 3.1 8.06667V18.6667C3.1 19.4667 3.37778 20.1556 3.93333 20.7333C4.51111 21.2889 5.2 21.5667 6 21.5667ZM14 18C15.2889 18 16.3889 17.5444 17.3 16.6333C18.2111 15.7222 18.6667 14.6222 18.6667 13.3333C18.6667 12.0444 18.2111 10.9444 17.3 10.0333C16.3889 9.12222 15.2889 8.66667 14 8.66667C12.7111 8.66667 11.6111 9.12222 10.7 10.0333C9.78889 10.9444 9.33333 12.0444 9.33333 13.3333C9.33333 14.6222 9.78889 15.7222 10.7 16.6333C11.6111 17.5444 12.7111 18 14 18ZM3.1 21.5667C3.1 21.5667 3.1 21.2889 3.1 20.7333C3.1 20.1556 3.1 19.4667 3.1 18.6667V8.06667C3.1 7.26667 3.1 6.58889 3.1 6.03333C3.1 5.47778 3.1 5.2 3.1 5.2C3.1 5.2 3.1 5.47778 3.1 6.03333C3.1 6.58889 3.1 7.26667 3.1 8.06667V18.6667C3.1 19.4667 3.1 20.1556 3.1 20.7333C3.1 21.2889 3.1 21.5667 3.1 21.5667Z" fill="#452B00"/>
</svg>
