<svg width="32" height="32" viewBox="0 0 32 32" fill="none" xmlns="http://www.w3.org/2000/svg">
<g clip-path="url(#clip0_52_10)">
<path d="M11.8333 18.9333H25.0667L20.6 13.0333L17.4 17.2L15.2667 14.4333L11.8333 18.9333ZM10 24.4333C9.33333 24.4333 8.75556 24.2 8.26667 23.7333C7.8 23.2444 7.56667 22.6667 7.56667 22V5.1C7.56667 4.43333 7.8 3.86666 8.26667 3.4C8.75556 2.91111 9.33333 2.66667 10 2.66667H26.9C27.5667 2.66667 28.1333 2.91111 28.6 3.4C29.0889 3.86666 29.3333 4.43333 29.3333 5.1V22C29.3333 22.6667 29.0889 23.2444 28.6 23.7333C28.1333 24.2 27.5667 24.4333 26.9 24.4333H10ZM10 22H26.9V5.1H10V22ZM5.1 29.3333C4.43333 29.3333 3.85556 29.1 3.36667 28.6333C2.9 28.1444 2.66667 27.5667 2.66667 26.9V7.56667H5.1V26.9H24.4333V29.3333H5.1ZM10 5.1V22V5.1Z" fill="#452B00"/>
</g>
<defs>
<clipPath id="clip0_52_10">
<rect width="32" height="32" fill="white"/>
</clipPath>
</defs>
</svg>
