<svg width="56" height="56" viewBox="0 0 56 56" fill="none" xmlns="http://www.w3.org/2000/svg">
<g clip-path="url(#clip0_52_500)">
<g clip-path="url(#clip1_52_500)">
<path d="M33 38C32.1667 38 31.4583 37.7083 30.875 37.125C30.2917 36.5417 30 35.8333 30 35C30 34.9 30.025 34.6667 30.075 34.3L23.05 30.2C22.7833 30.45 22.475 30.65 22.125 30.8C21.775 30.9333 21.4 31 21 31C20.1667 31 19.4583 30.7083 18.875 30.125C18.2917 29.5417 18 28.8333 18 28C18 27.1667 18.2917 26.4583 18.875 25.875C19.4583 25.2917 20.1667 25 21 25C21.4 25 21.775 25.075 22.125 25.225C22.475 25.3583 22.7833 25.55 23.05 25.8L30.075 21.7C30.0417 21.5833 30.0167 21.475 30 21.375C30 21.2583 30 21.1333 30 21C30 20.1667 30.2917 19.4583 30.875 18.875C31.4583 18.2917 32.1667 18 33 18C33.8333 18 34.5417 18.2917 35.125 18.875C35.7083 19.4583 36 20.1667 36 21C36 21.8333 35.7083 22.5417 35.125 23.125C34.5417 23.7083 33.8333 24 33 24C32.6 24 32.225 23.9333 31.875 23.8C31.525 23.65 31.2167 23.45 30.95 23.2L23.925 27.3C23.9583 27.4167 23.975 27.5333 23.975 27.65C23.9917 27.75 24 27.8667 24 28C24 28.1333 23.9917 28.2583 23.975 28.375C23.975 28.475 23.9583 28.5833 23.925 28.7L30.95 32.8C31.2167 32.55 31.525 32.3583 31.875 32.225C32.225 32.075 32.6 32 33 32C33.8333 32 34.5417 32.2917 35.125 32.875C35.7083 33.4583 36 34.1667 36 35C36 35.8333 35.7083 36.5417 35.125 37.125C34.5417 37.7083 33.8333 38 33 38ZM33 36C33.2833 36 33.5167 35.9083 33.7 35.725C33.9 35.525 34 35.2833 34 35C34 34.7167 33.9 34.4833 33.7 34.3C33.5167 34.1 33.2833 34 33 34C32.7167 34 32.475 34.1 32.275 34.3C32.0917 34.4833 32 34.7167 32 35C32 35.2833 32.0917 35.525 32.275 35.725C32.475 35.9083 32.7167 36 33 36ZM21 29C21.2833 29 21.5167 28.9083 21.7 28.725C21.9 28.525 22 28.2833 22 28C22 27.7167 21.9 27.4833 21.7 27.3C21.5167 27.1 21.2833 27 21 27C20.7167 27 20.475 27.1 20.275 27.3C20.0917 27.4833 20 27.7167 20 28C20 28.2833 20.0917 28.525 20.275 28.725C20.475 28.9083 20.7167 29 21 29ZM33 22C33.2833 22 33.5167 21.9083 33.7 21.725C33.9 21.525 34 21.2833 34 21C34 20.7167 33.9 20.4833 33.7 20.3C33.5167 20.1 33.2833 20 33 20C32.7167 20 32.475 20.1 32.275 20.3C32.0917 20.4833 32 20.7167 32 21C32 21.2833 32.0917 21.525 32.275 21.725C32.475 21.9083 32.7167 22 33 22Z" fill="#452B00"/>
</g>
</g>
<defs>
<clipPath id="clip0_52_500">
<rect width="56" height="56" rx="28" fill="white"/>
</clipPath>
<clipPath id="clip1_52_500">
<rect width="24" height="24" fill="white" transform="translate(16 16)"/>
</clipPath>
</defs>
</svg>
